<?xml version="1.0" encoding="UTF-8"?>
<svg width="273px" height="34px" viewBox="0 0 273 34" version="1.1" xmlns="http://www.w3.org/2000/svg" xmlns:xlink="http://www.w3.org/1999/xlink">
    <defs>
        <polygon id="path-1" points="23.3394103 32.5479452 0 32.5479452 0 0.290309589 23.3394103 0.290309589"></polygon>
        <polygon id="path-3" points="0.119480865 23.9589041 23.4589817 23.9589041 23.4589817 0.285336986 0.119480865 0.285336986 0.119480865 23.9589041"></polygon>
        <polygon id="path-5" points="0.311962729 23.9589041 22.6562423 23.9589041 22.6562423 0.285156164 0.311962729 0.285156164 0.311962729 23.9589041"></polygon>
        <polygon id="path-7" points="21.2492193 0.290219178 0.352287521 0.290219178 0.352287521 31.9154301 21.2492193 31.9154301 21.2492193 0.290219178"></polygon>
        <polygon id="path-9" points="0.200945092 23.9589041 24.626183 23.9589041 24.626183 0.285336986 0.200945092 0.285336986 0.200945092 23.9589041"></polygon>
        <polygon id="path-11" points="0.0768026622 32.5479452 23.4163035 32.5479452 23.4163035 0.290309589 0.0768026622 0.290309589"></polygon>
    </defs>
    <g id="Symbols" stroke="none" stroke-width="1" fill="none" fill-rule="evenodd">
        <g id="logo-cyan-hi-res">
            <g id="logo" transform="translate(138.000000, 9.000000)" fill="#42BDC6">
                <polygon id="Fill-25" points="12.7051341 0.191720548 7.19000599 1.54969315 2.93847854 5.31169315 0.92450183 10.6165562 1.60880133 16.2487068 4.83568985 20.9179808 9.86520067 23.5543644 15.5450676 23.5543644 20.5745784 20.9179808 23.8014669 16.2487068 24.4857664 10.6165562 22.4717897 5.31169315 18.2202622 1.54969315"></polygon>
            </g>
            <g id="Group-3" transform="translate(0.000000, 0.161926)">
                <mask id="mask-2" fill="white">
                    <use xlink:href="#path-1"></use>
                </mask>
                <g id="Clip-2"></g>
                <path d="M11.6696599,27.1265425 C13.4487481,27.1265425 14.8879494,26.5772959 15.9895268,25.4774466 C17.0897464,24.3785014 17.6400825,22.8794877 17.6400825,20.9817616 L17.6400825,20.4402 C17.6400825,18.542474 17.0897464,17.0443644 15.9895268,15.9449671 C14.8879494,14.8455699 13.4487481,14.2954192 11.6696599,14.2954192 C9.89011913,14.2954192 8.4509178,14.8604877 7.34979301,15.9897205 C6.2491208,17.1194055 5.69923727,18.6035014 5.69923727,20.4402 L5.69923727,20.9817616 C5.69923727,22.8198164 6.2491208,24.3025562 7.34979301,25.4322411 C8.4509178,26.561926 9.89011913,27.1265425 11.6696599,27.1265425 L11.6696599,27.1265425 Z M5.69923727,31.915611 L-9.05158067e-05,31.915611 L-9.05158067e-05,0.290309589 L5.69923727,0.290309589 L5.69923727,12.759789 L6.51297438,12.759789 C7.11580965,11.5247753 7.99064493,10.5682274 9.13702762,9.89059726 C10.2825052,9.21341918 11.744788,8.87437808 13.5243288,8.87437808 C14.8508379,8.87437808 16.1094602,9.1302411 17.3006483,9.64241918 C18.4918363,10.1545973 19.5318629,10.9000356 20.4216333,11.8791863 C21.3109511,12.8578849 22.0201424,14.054926 22.547397,15.4707616 C23.0751042,16.8865973 23.3394103,18.4972685 23.3394103,20.3045836 L23.3394103,21.1178301 C23.3394103,22.9549808 23.082798,24.581926 22.570026,25.9973096 C22.0572539,27.4135973 21.3639028,28.6101863 20.4899727,29.5888849 C19.6146849,30.5680356 18.5823521,31.305337 17.3911641,31.8025973 C16.199976,32.2994055 14.9110309,32.5480356 13.5243288,32.5480356 C12.4987847,32.5480356 11.6090143,32.4422548 10.8559228,32.2315973 C10.1014735,32.0204877 9.44523394,31.734337 8.88810915,31.3735973 C8.32917404,31.0119534 7.86211248,30.5983233 7.48556672,30.1308986 C7.10856839,29.6643781 6.78497438,29.1752548 6.51297438,28.6626247 L5.69923727,28.6626247 L5.69923727,31.915611 Z" id="Fill-1" fill="#222429" mask="url(#mask-2)"></path>
            </g>
            <g id="Group-6" transform="translate(27.154742, 8.750967)">
                <mask id="mask-4" fill="white">
                    <use xlink:href="#path-3"></use>
                </mask>
                <g id="Clip-5"></g>
                <path d="M11.7892313,18.5375014 C12.6029684,18.5375014 13.3723527,18.4018849 14.095574,18.1311041 C14.8192479,17.8598712 15.4533111,17.4688438 15.9950483,16.9562137 C16.5381431,16.4440356 16.9676406,15.8197479 17.2844459,15.0810904 C17.6007987,14.343789 17.7596539,13.5074877 17.7596539,12.5739945 L17.7596539,11.670337 C17.7596539,10.7372959 17.6007987,9.90144658 17.2844459,9.1632411 C16.9676406,8.42503562 16.5381431,7.80074795 15.9950483,7.28766575 C15.4533111,6.77593973 14.8192479,6.38446027 14.095574,6.11367945 C13.3723527,5.84244658 12.6029684,5.70637808 11.7892313,5.70637808 C10.974589,5.70637808 10.2061098,5.84244658 9.48198336,6.11367945 C8.75876206,6.38446027 8.12515141,6.77593973 7.58250915,7.28766575 C7.03986689,7.80074795 6.60991681,8.42503562 6.29311148,9.1632411 C5.97675874,9.90144658 5.81835607,10.7372959 5.81835607,11.670337 L5.81835607,12.5739945 C5.81835607,13.5074877 5.97675874,14.343789 6.29311148,15.0810904 C6.60991681,15.8197479 7.03986689,16.4440356 7.58250915,16.9562137 C8.12515141,17.4688438 8.75876206,17.8598712 9.48198336,18.1311041 C10.2061098,18.4018849 10.974589,18.5375014 11.7892313,18.5375014 L11.7892313,18.5375014 Z M23.4589817,12.3927205 C23.4589817,14.261063 23.1421764,15.9101589 22.5094709,17.3404603 C21.8758602,18.7712137 21.0164126,19.9763918 19.9311281,20.9546384 C18.845391,21.933789 17.6007987,22.6792274 16.199614,23.1909534 C14.7970715,23.7026795 13.3266423,23.9589945 11.7892313,23.9589945 C10.2513677,23.9589945 8.78139101,23.7026795 7.37884859,23.1909534 C5.97675874,22.6792274 4.73307155,21.933789 3.64778702,20.9546384 C2.56204992,19.9763918 1.70260233,18.7712137 1.06944426,17.3404603 C0.43628619,15.9101589 0.119480865,14.261063 0.119480865,12.3927205 L0.119480865,11.8511589 C0.119480865,10.0144603 0.43628619,8.37983014 1.06944426,6.94907671 C1.70260233,5.51877534 2.56204992,4.30636438 3.64778702,3.31184384 C4.73307155,2.3182274 5.97675874,1.56555616 7.37884859,1.05337808 C8.78139101,0.5412 10.2513677,0.285336986 11.7892313,0.285336986 C13.3266423,0.285336986 14.7970715,0.5412 16.199614,1.05337808 C17.6007987,1.56555616 18.845391,2.3182274 19.9311281,3.31184384 C21.0164126,4.30636438 21.8758602,5.51877534 22.5094709,6.94907671 C23.1421764,8.37983014 23.4589817,10.0144603 23.4589817,11.8511589 L23.4589817,12.3927205 Z" id="Fill-4" fill="#222429" mask="url(#mask-4)"></path>
            </g>
            <polygon id="Fill-7" fill="#222429" points="54.7294323 9.66845753 60.8804339 9.66845753 66.1728932 29.3667452 66.9866303 29.3667452 72.2790895 9.66845753 78.4300912 9.66845753 72.0070895 32.0772658 61.1519814 32.0772658"></polygon>
            <g id="Group-11" transform="translate(82.821963, 8.750967)">
                <mask id="mask-6" fill="white">
                    <use xlink:href="#path-5"></use>
                </mask>
                <g id="Clip-10"></g>
                <path d="M11.5748446,5.43586849 C10.1270443,5.43586849 8.95124393,5.80429315 8.04699101,6.54249863 C7.14183295,7.28070411 6.55438536,8.13147123 6.28238536,9.09525205 L16.8663987,9.09525205 C16.6858196,8.04151233 16.1200958,7.16814247 15.170585,6.47469041 C14.2206216,5.78259452 13.0217398,5.43586849 11.5748446,5.43586849 L11.5748446,5.43586849 Z M6.19186955,13.9747315 C6.22173977,14.6369918 6.38014243,15.2472658 6.66753012,15.8046493 C6.95356007,16.3620329 7.34549351,16.8430192 7.84333045,17.2503205 C8.34071481,17.6562658 8.91322729,17.9727041 9.56222562,18.1987315 C10.2098662,18.4243068 10.895976,18.5373205 11.6196499,18.5373205 C13.0371275,18.5373205 14.1228646,18.2891425 14.8764087,17.7918822 C15.6295002,17.295074 16.172595,16.7006219 16.5052406,16.0076219 L21.3899261,18.7181425 C21.1188313,19.2904438 20.7413804,19.8858 20.2593837,20.5028548 C19.7764819,21.1203616 19.1510176,21.6849781 18.3820859,22.1967041 C17.6127015,22.7097863 16.6781258,23.1311014 15.5779062,23.4620055 C14.4767814,23.7929096 13.1873837,23.9592658 11.7106183,23.9592658 C10.0215933,23.9592658 8.4832772,23.6880329 7.09702762,23.1455671 C5.7094203,22.6040055 4.51144359,21.8205945 3.50083461,20.7962384 C2.49022562,19.7727863 1.70681131,18.5228548 1.14878136,17.0464438 C0.590751414,15.570937 0.311962729,13.8996904 0.311962729,12.0318 L0.311962729,11.7605671 C0.311962729,10.043663 0.606139101,8.47774521 1.19403927,7.06236164 C1.78193943,5.64652603 2.58843527,4.4418 3.61397937,3.44818356 C4.6386183,2.45366301 5.83750017,1.67838904 7.21017238,1.12100548 C8.58193943,0.564073973 10.0519161,0.285156164 11.6196499,0.285156164 C13.5494469,0.285156164 15.2081491,0.62419726 16.5953038,1.30137534 C17.982006,1.97945753 19.1279361,2.83790959 20.0330942,3.87718356 C20.9373471,4.91600548 21.600828,6.06106027 22.0230842,7.31053973 C22.4453404,8.56092329 22.6562423,9.77288219 22.6562423,10.9473205 L22.6562423,13.9747315 L6.19186955,13.9747315 Z" id="Fill-9" fill="#222429" mask="url(#mask-6)"></path>
            </g>
            <path d="M117.374019,32.0774014 L111.674692,32.0774014 L111.674692,9.66859315 L117.374019,9.66859315 L117.374019,13.0119904 L118.187756,13.0119904 C118.700528,11.746689 119.529653,10.7684425 120.675583,10.0749904 C121.821513,9.38289452 123.16341,9.03616849 124.700821,9.03616849 C125.786558,9.03616849 126.804861,9.20975753 127.754825,9.55557945 C128.704335,9.90185342 129.541154,10.4366342 130.264375,11.1599219 C130.988954,11.8823055 131.553773,12.8013329 131.961094,13.9156479 C132.367963,15.029963 132.571623,16.3553877 132.571623,17.8910178 L132.571623,32.0774014 L126.872296,32.0774014 L126.872296,19.336689 C126.872296,17.7409356 126.488056,16.4837712 125.719124,15.5647438 C124.950192,14.6461685 123.841826,14.1868808 122.394479,14.1868808 C120.705454,14.1868808 119.446831,14.7514973 118.617706,15.8807301 C117.788129,17.0104151 117.374019,18.5238945 117.374019,20.4211685 L117.374019,32.0774014 Z" id="Fill-12" fill="#222429"></path>
            <g id="Group-16" transform="translate(166.549085, 0.161926)">
                <mask id="mask-8" fill="white">
                    <use xlink:href="#path-7"></use>
                </mask>
                <g id="Clip-15"></g>
                <polygon id="Fill-14" fill="#222429" mask="url(#mask-8)" points="0.352287521 26.493937 8.22308952 26.493937 8.22308952 5.71162192 0.624287521 5.71162192 0.624287521 0.290128767 13.9219647 0.290128767 13.9219647 26.493937 21.2492193 26.493937 21.2492193 31.9154301 0.352287521 31.9154301"></polygon>
            </g>
            <g id="Group-19" transform="translate(192.798669, 8.750967)">
                <mask id="mask-10" fill="white">
                    <use xlink:href="#path-9"></use>
                </mask>
                <g id="Clip-18"></g>
                <path d="M11.3733111,18.5375014 C13.0315607,18.5375014 14.3585225,17.9882548 15.3537438,16.8884055 C16.3485125,15.7894603 16.8463494,14.2904466 16.8463494,12.3927205 L16.8463494,11.8511589 C16.8463494,9.95343288 16.3485125,8.45532329 15.3537438,7.35592603 C14.3585225,6.25652877 13.0315607,5.70637808 11.3733111,5.70637808 C9.71460899,5.70637808 8.38809983,6.25652877 7.39287854,7.35592603 C6.39765724,8.45532329 5.90027288,9.95343288 5.90027288,11.8511589 L5.90027288,12.3927205 C5.90027288,14.2904466 6.39765724,15.7894603 7.39287854,16.8884055 C8.38809983,17.9882548 9.71460899,18.5375014 11.3733111,18.5375014 L11.3733111,18.5375014 Z M16.4385757,20.0735836 C15.8352879,21.4894192 14.9916805,22.4907205 13.9059434,23.0779397 C12.8202063,23.665611 11.5538902,23.9589945 10.106995,23.9589945 C8.74971048,23.9589945 7.4757005,23.7026795 6.28451248,23.1909534 C5.09332446,22.6792274 4.04560399,21.9256521 3.14135108,20.9320356 C2.23664559,19.9379671 1.5197604,18.7336932 0.992505824,17.3178575 C0.46434609,15.902474 0.200945092,14.2904466 0.200945092,12.4835836 L0.200945092,11.7607479 C0.200945092,9.98372055 0.456652246,8.38796712 0.969876872,6.97167945 C1.48264892,5.55629589 2.17554742,4.35111781 3.0503827,3.35704932 C3.92476539,2.36343288 4.94216306,1.60307671 6.10348087,1.07598082 C7.26389351,0.549336986 8.50803328,0.285336986 9.83544759,0.285336986 C11.4335042,0.285336986 12.7224493,0.556569863 13.7022829,1.09858356 C14.6821165,1.64059726 15.4587421,2.48367945 16.0317072,3.62873425 L16.8463494,3.62873425 L16.8463494,0.917309589 L22.5452246,0.917309589 L22.5452246,17.9050767 L24.626183,17.9050767 L24.626183,23.3265699 L20.7358136,23.3265699 C19.7107221,23.3265699 18.8734509,23.0259534 18.2258103,22.4229123 C17.576812,21.8207753 17.253218,21.0378164 17.253218,20.0735836 L16.4385757,20.0735836 Z" id="Fill-17" fill="#222429" mask="url(#mask-10)"></path>
            </g>
            <path d="M228.099019,32.0774014 L222.399691,32.0774014 L222.399691,9.66859315 L228.099019,9.66859315 L228.099019,13.0119904 L228.912756,13.0119904 C229.425528,11.746689 230.254653,10.7684425 231.400583,10.0749904 C232.546513,9.38289452 233.88841,9.03616849 235.425821,9.03616849 C236.511558,9.03616849 237.529861,9.20975753 238.479824,9.55557945 C239.429335,9.90185342 240.266154,10.4366342 240.989375,11.1599219 C241.713954,11.8823055 242.278773,12.8013329 242.686094,13.9156479 C243.092962,15.029963 243.296623,16.3553877 243.296623,17.8910178 L243.296623,32.0774014 L237.597295,32.0774014 L237.597295,19.336689 C237.597295,17.7409356 237.213056,16.4837712 236.444124,15.5647438 C235.675192,14.6461685 234.566826,14.1868808 233.119478,14.1868808 C231.430453,14.1868808 230.171831,14.7514973 229.342706,15.8807301 C228.513129,17.0104151 228.099019,18.5238945 228.099019,20.4211685 L228.099019,32.0774014 Z" id="Fill-20" fill="#222429"></path>
            <g id="Group-24" transform="translate(248.465890, 0.161926)">
                <mask id="mask-12" fill="white">
                    <use xlink:href="#path-11"></use>
                </mask>
                <g id="Clip-23"></g>
                <path d="M11.7465531,27.1265425 C13.5256413,27.1265425 14.9657478,26.561926 16.06642,25.4322411 C17.1666396,24.3025562 17.7174283,22.8198164 17.7174283,20.9817616 L17.7174283,20.4402 C17.7174283,18.6035014 17.1666396,17.1194055 16.06642,15.9897205 C14.9657478,14.8604877 13.5256413,14.2954192 11.7465531,14.2954192 C9.96701231,14.2954192 8.52781098,14.8455699 7.42759135,15.9449671 C6.32601398,17.0443644 5.77613045,18.542474 5.77613045,20.4402 L5.77613045,20.9817616 C5.77613045,22.8794877 6.32601398,24.3785014 7.42759135,25.4774466 C8.52781098,26.5772959 9.96701231,27.1265425 11.7465531,27.1265425 L11.7465531,27.1265425 Z M17.7174283,28.6626247 L16.9032386,28.6626247 C16.6615614,29.1752548 16.3678376,29.6643781 16.0216146,30.1308986 C15.6740339,30.5983233 15.2223601,31.0119534 14.6643301,31.3735973 C14.1063002,31.734337 13.4432719,32.0204877 12.6743401,32.2315973 C11.9054083,32.4422548 10.9780739,32.5480356 9.89233677,32.5480356 C8.50472945,32.5480356 7.21578436,32.2994055 6.02504892,31.8025973 C4.83340832,31.305337 3.7933817,30.5680356 2.90406389,29.5888849 C2.01429351,28.6101863 1.32139501,27.4135973 0.823105491,25.9973096 C0.32617371,24.581926 0.0768026622,22.9549808 0.0768026622,21.1178301 L0.0768026622,20.3045836 C0.0768026622,18.4972685 0.341108819,16.8865973 0.868815973,15.4707616 C1.39561797,14.054926 2.11974443,12.8578849 3.04029018,11.8791863 C3.9594782,10.9000356 5.02982762,10.1545973 6.25133844,9.64241918 C7.47239667,9.1302411 8.76134176,8.87437808 10.1186263,8.87437808 C11.9280373,8.87437808 13.3599973,9.21341918 14.4158642,9.89059726 C15.4703734,10.5682274 16.2994982,11.5247753 16.9032386,12.759789 L17.7174283,12.759789 L17.7174283,0.290309589 L23.4163035,0.290309589 L23.4163035,31.915611 L17.7174283,31.915611 L17.7174283,28.6626247 Z" id="Fill-22" fill="#222429" mask="url(#mask-12)"></path>
            </g>
        </g>
    </g>
</svg>