<svg xmlns="http://www.w3.org/2000/svg" width="752" height="154" viewBox="0 0 752 154"><defs><style>.cls-1{fill:#ffffff;}</style></defs><path class="cls-1" d="M17.79419,64.87522C10.0929,64.87522,3.80738,62.131,0,55.48845l10.18143-6.90854c1.77019,3.19119,4.1599,5.40343,8.14374,5.40343,1.86063,0,3.45287-.44015,3.45287-2.03919,0-1.67816-1.23912-2.21124-5.57608-3.89041l-2.30368-.8861C6.19709,44.15643,2.21364,39.2,2.21364,32.91143c0-8.14094,6.72867-13.71742,15.22744-13.71742,5.666,0,10.62258,2.11831,13.98681,6.98875L23.81472,33.7104c-1.68216-2.3912-3.62892-3.98334-6.37364-3.98334-1.7702,0-3.18778.619-3.18778,2.03809,0,1.76529,1.41758,2.29827,5.84257,3.98435l1.86013.70613C30.36683,39.64,33.81961,44.24345,33.81961,50.799,33.81961,59.82591,26.82454,64.87522,17.79419,64.87522Z"/><path class="cls-1" d="M43.0211,50.532V31.58519H37.26655l-2.92128-11.685H43.0211V13.25851L56.3898,6.616V19.90015H70.37862l-2.92128,11.685H56.3898v15.1365c0,3.72416,1.50561,5.22246,5.135,5.22246h7.25964V64.16227H56.56636C48.24556,64.16227,43.0211,58.93981,43.0211,50.532Z"/><path class="cls-1" d="M83.03438.60034A7.9319,7.9319,0,0,1,91.00207,8.568a7.61285,7.61285,0,0,1-1.7706,5.04359H76.83679A7.61525,7.61525,0,0,1,75.0666,8.568,7.932,7.932,0,0,1,83.03438.60034ZM76.30571,64.16227V19.90015H89.763V64.16227Z"/><path class="cls-1" d="M120.12639,31.49916a9.69233,9.69233,0,0,0-7.34818,3.45036V64.16227H99.409V19.90015h13.36921v2.6582a16.83157,16.83157,0,0,1,10.0929-3.36434,16.16622,16.16622,0,0,1,12.57114,5.39662c2.56627-2.6582,7.34828-5.39662,14.16488-5.39662,13.19075,0,18.59217,9.20681,18.59217,20.27294V64.16227H154.8301V41.85806c0-5.75545-1.68218-10.3589-6.99317-10.3589a9.73945,9.73945,0,0,0-7.61467,3.80348,31.65255,31.65255,0,0,1,.26649,4.16431V64.16227h-13.3692V41.85806C127.11955,36.10261,125.43738,31.49916,120.12639,31.49916Z"/><path class="cls-1" d="M206.43708,60.89187a16.20058,16.20058,0,0,1-10.53455,3.98335c-11.95163,0-18.94669-8.23368-18.94669-20.27875V19.90015h13.36871v22.311c0,6.01563,2.47824,10.446,7.79123,10.446a9.704,9.704,0,0,0,8.3213-4.51643V19.90015h13.36821V64.16227H206.43708Z"/><path class="cls-1" d="M229.45224,1.30648h13.45333V64.16227H229.45224Z"/><path class="cls-1" d="M249.98335,42.03121c0-13.01028,9.20691-22.8372,22.844-22.8372,11.24209,0,21.3351,7.34868,21.3351,21.33209a29.99135,29.99135,0,0,1-.2661,3.89732H262.82149c.709,5.92859,5.6656,8.23378,9.64995,8.23378a10.145,10.145,0,0,0,9.47289-5.57558l10.622,7.16771a23.27693,23.27693,0,0,1-20.00494,10.62589A22.55082,22.55082,0,0,1,249.98335,42.03121Zm30.98886-5.40242-.09-.52618c-.8861-4.33746-4.69338-6.19558-8.85378-6.19558-3.18828,0-7.79173,1.41217-9.03085,6.72176Z"/><path class="cls-1" d="M322.57914,32.29132a12.87175,12.87175,0,0,0-8.05773,2.92519V64.16227h-13.3673V19.90015h13.3673v3.89731A12.078,12.078,0,0,1,324.61432,19.194a15.98613,15.98613,0,0,1,4.78331.70614V33.79743A15.10262,15.10262,0,0,0,322.57914,32.29132Z"/><path class="cls-1" d="M341.785.60034A7.93159,7.93159,0,0,1,349.75269,8.568a7.621,7.621,0,0,1-1.7682,5.04359H335.58941a7.60889,7.60889,0,0,1-1.7722-5.04359A7.93231,7.93231,0,0,1,341.785.60034Zm-6.72867,63.56193V19.90015h13.45724V64.16227Z"/><path class="cls-1" d="M379.49463,31.40522a11.30334,11.30334,0,0,0-7.96781,3.81129V64.16227h-13.3662V19.90015h13.3662v2.6582A16.36374,16.36374,0,0,1,381.70976,19.194c12.48121,0,19.29981,8.32081,19.29981,20.27294V64.16227H387.64326V41.85806C387.64326,35.92265,385.34109,31.40522,379.49463,31.40522Z"/><path class="cls-1" d="M410.03651,76.38039,416.056,64.60923a20.87038,20.87038,0,0,0,13.01419,4.51642c5.31249,0,10.09291-1.7721,10.09291-7.0885a6.38208,6.38208,0,0,0-1.1491-3.71745,15.716,15.716,0,0,1-9.83082,3.36434c-13.3663,0-20.891-10.44593-20.891-21.245s7.52474-21.24506,20.891-21.24506a15.46127,15.46127,0,0,1,9.74079,3.36434v-2.6582h13.36731V55.57548a21.92711,21.92711,0,0,1,1.86213,8.68073c0,12.4773-11.68905,17.08065-23.19713,17.08065C423.31769,81.33686,416.322,80.45767,410.03651,76.38039Zm19.91981-44.97517a9.032,9.032,0,1,0,0,18.06069,9.9558,9.9558,0,0,0,7.96769-3.71735V35.12949A9.96466,9.96466,0,0,0,429.95632,31.40522Z"/><path class="cls-1" d="M474.12751,64.87522c-7.7046,0-13.99022-2.74423-17.7976-9.38677l10.18293-6.90854c1.7721,3.19119,4.16041,5.40343,8.14475,5.40343,1.85823,0,3.45427-.44015,3.45427-2.03919,0-1.67816-1.23912-2.21124-5.57939-3.89041l-2.30227-.8861c-7.7007-3.01121-11.685-7.96768-11.685-14.25621,0-8.14094,6.72857-13.71742,15.22643-13.71742,5.66551,0,10.6259,2.11831,13.99022,6.98875l-7.61467,7.52764c-1.68217-2.3912-3.63132-3.98334-6.37555-3.98334-1.76919,0-3.18435.619-3.18435,2.03809,0,1.76529,1.41516,2.29827,5.84257,3.98435l1.8581.70613C486.69875,39.64,490.15,44.24345,490.15,50.799,490.15,59.82591,483.15836,64.87522,474.12751,64.87522Z"/><path class="cls-1" d="M498.82293,31.58519h-5.75554v-11.685h6.46168a11.23343,11.23343,0,0,1-2.74132-7.34768c0-6.28952,4.60435-11.246,11.952-11.246H522.4601v11.685h-8.67382c-3.10123,0-4.34037,1.5061-4.34037,3.45827a3.40183,3.40183,0,0,0,3.45427,3.45036h9.55992v11.685H512.19026V64.16227H498.82293Z"/><path class="cls-1" d="M571.59177,42.03121A23.01934,23.01934,0,1,1,548.57462,19.194,22.937,22.937,0,0,1,571.59177,42.03121Zm-13.45724,0c0-6.10856-4.07338-10.35889-9.55991-10.35889-5.48947,0-9.56284,4.25033-9.56284,10.35889,0,6.10956,4.07337,10.35989,9.56284,10.35989C554.06115,52.3911,558.13453,48.14077,558.13453,42.03121Z"/><path class="cls-1" d="M600.00454,31.40522a11.30334,11.30334,0,0,0-7.96769,3.81129V64.16227h-13.3673V19.90015h13.3673v2.6582A16.36136,16.36136,0,0,1,602.21969,19.194c12.48121,0,19.29981,8.32081,19.29981,20.27294V64.16227H608.15229V41.85806C608.15229,35.92265,605.851,31.40522,600.00454,31.40522Z"/><path class="cls-1" d="M649.75231,64.87522c-13.10022,0-21.42493-10.71192-21.42493-22.844,0-12.12418,8.32471-22.8372,21.42493-22.8372a15.45871,15.45871,0,0,1,9.73988,3.36434V1.30648H672.8595V64.16227H659.49219V61.511A15.45921,15.45921,0,0,1,649.75231,64.87522Zm9.73988-15.93548V35.12949a8.88555,8.88555,0,0,0-7.52473-3.72427c-6.37553,0-10.18284,4.78342-10.18284,10.626s3.80731,10.626,10.18284,10.626A8.8945,8.8945,0,0,0,659.49219,48.93974Z"/><path class="cls-1" d="M695.52354,64.87522c-7.7046,0-13.99022-2.74423-17.7976-9.38677l10.18293-6.90854c1.7721,3.19119,4.1604,5.40343,8.14375,5.40343,1.85922,0,3.45526-.44015,3.45526-2.03919,0-1.67816-1.23911-2.21124-5.57948-3.89041l-2.30218-.8861c-7.70069-3.01121-11.68513-7.96768-11.68513-14.25621,0-8.14094,6.72866-13.71742,15.22555-13.71742,5.66649,0,10.62686,2.11831,13.9912,6.98875l-7.61467,7.52764c-1.68217-2.3912-3.63133-3.98334-6.37653-3.98334-1.76832,0-3.18339.619-3.18339,2.03809,0,1.76529,1.41507,2.29827,5.84247,3.98435l1.85822.70613C708.09468,39.64,711.546,44.24345,711.546,50.799,711.546,59.82591,704.55441,64.87522,695.52354,64.87522Z"/><path class="cls-1" d="M2.12521,130.55555a23.08857,23.08857,0,0,1,42.4069-12.39117l-10.62448,7.52083a9.87391,9.87391,0,0,0-8.76526-5.48955c-5.48805,0-9.56192,4.25033-9.56192,10.35989,0,6.10856,4.07387,10.359,9.56192,10.359a9.8597,9.8597,0,0,0,8.76526-5.48955l10.62448,7.52864a23.08852,23.08852,0,0,1-42.4069-12.39809Z"/><path class="cls-1" d="M71.52731,120.81567A12.871,12.871,0,0,0,63.47149,123.74v28.94575H50.10278V108.42449H63.47149v3.89732a12.07044,12.07044,0,0,1,10.0929-4.60345,15.9846,15.9846,0,0,1,4.78.70613v13.89638A15.089,15.089,0,0,0,71.52731,120.81567Z"/><path class="cls-1" d="M81.44225,130.55555c0-13.01128,9.2068-22.83719,22.8406-22.83719,11.24349,0,21.33649,7.34767,21.33649,21.33108a29.89445,29.89445,0,0,1-.26659,3.89732H94.27788c.70954,5.9296,5.66611,8.23478,9.65,8.23478a10.14266,10.14266,0,0,0,9.47339-5.57658l10.62439,7.16871a23.28576,23.28576,0,0,1-20.00785,10.626A22.55038,22.55038,0,0,1,81.44225,130.55555Zm30.98485-5.40342-.08853-.52617c-.88409-4.33636-4.69139-6.19559-8.85178-6.19559-3.18778,0-7.79124,1.41227-9.03035,6.72176Z"/><path class="cls-1" d="M151.55429,153.39966c-13.10272,0-21.42493-10.713-21.42493-22.84411,0-12.12518,8.32221-22.83719,21.42493-22.83719a15.45833,15.45833,0,0,1,9.738,3.36433v-2.6582H174.661v44.26122H161.29227v-2.65039A15.45834,15.45834,0,0,1,151.55429,153.39966Zm9.738-15.93547V123.65383a8.879,8.879,0,0,0-7.52473-3.72416c-6.37556,0-10.18093,4.78331-10.18093,10.62588s3.80537,10.626,10.18093,10.626A8.893,8.893,0,0,0,161.29227,137.46419Z"/><path class="cls-1" d="M186.69372,139.05632V120.10963h-5.754l-2.92128-11.68514h8.67532V101.782l13.36921-6.64154v13.28408h13.98882l-2.92128,11.68514H200.06293V135.245c0,3.72426,1.50561,5.22256,5.13505,5.22256h7.25964v12.21812H200.23949C191.91869,152.68571,186.69372,147.46315,186.69372,139.05632Z"/><path class="cls-1" d="M226.707,89.12468a7.9317,7.9317,0,0,1,7.96779,7.96779,7.61637,7.61637,0,0,1-1.76829,5.0425H220.50943a7.613,7.613,0,0,1-1.7701-5.0425A7.93224,7.93224,0,0,1,226.707,89.12468Zm-6.72857,63.561V108.42449h13.45724v44.26122Z"/><path class="cls-1" d="M240.51336,130.55555c0-13.01128,9.20692-22.83719,22.84121-22.83719,11.245,0,21.33789,7.34767,21.33789,21.33108a29.97884,29.97884,0,0,1-.266,3.89732H253.3516c.709,5.9296,5.6655,8.23478,9.64985,8.23478a10.14392,10.14392,0,0,0,9.47289-5.57658l10.623,7.16871a23.27983,23.27983,0,0,1-20.00584,10.626A22.551,22.551,0,0,1,240.51336,130.55555Zm30.98887-5.40342-.08995-.52617c-.8861-4.33636-4.69348-6.19559-8.85388-6.19559-3.18828,0-7.79163,1.41227-9.03075,6.72176Z"/><path class="cls-1" d="M319.83481,108.42449H335.2402l-25.76138,44.97517-25.76529-44.97517h15.40539l10.3599,19.29981Z"/><path class="cls-1" d="M333.02115,130.55555c0-13.01128,9.2069-22.83719,22.8411-22.83719,11.245,0,21.338,7.34767,21.338,21.33108a29.9812,29.9812,0,0,1-.2661,3.89732H345.85929c.70913,5.9296,5.6656,8.23478,9.64994,8.23478a10.144,10.144,0,0,0,9.4729-5.57658l10.623,7.16871a23.28,23.28,0,0,1-20.006,10.626A22.551,22.551,0,0,1,333.02115,130.55555ZM364.01,125.15213l-.09-.52617c-.886-4.33636-4.69339-6.19559-8.85379-6.19559-3.18828,0-7.79173,1.41227-9.03084,6.72176Z"/><path class="cls-1" d="M409.50343,89.12468a7.93169,7.93169,0,0,1,7.96778,7.96779,7.61682,7.61682,0,0,1-1.76819,5.0425H403.30784a7.604,7.604,0,0,1-1.7721-5.0425A7.93224,7.93224,0,0,1,409.50343,89.12468Zm-6.72857,63.561V108.42449H416.2321v44.26122Z"/><path class="cls-1" d="M447.213,119.92967a11.30189,11.30189,0,0,0-7.96769,3.81029v28.94575H425.878V108.42449h13.36731v2.6582a16.36137,16.36137,0,0,1,10.18285-3.36433c12.48119,0,19.29979,8.3208,19.29979,20.27193v24.69542h-13.3672V130.3825C455.36079,124.446,453.05953,119.92967,447.213,119.92967Z"/><path class="cls-1" d="M496.96471,153.39966c-13.10022,0-21.421-10.713-21.421-22.84411,0-12.12518,8.3208-22.83719,21.421-22.83719a15.45847,15.45847,0,0,1,9.73988,3.36433V89.83082H520.0719v62.85489H506.70459v-2.65039A15.45848,15.45848,0,0,1,496.96471,153.39966Zm9.73988-15.93547V123.65383a8.88317,8.88317,0,0,0-7.52463-3.72416c-6.37565,0-10.18294,4.78331-10.18294,10.62588s3.80729,10.626,10.18294,10.626A8.89712,8.89712,0,0,0,506.70459,137.46419Z"/><path class="cls-1" d="M558.75756,149.41532a16.21117,16.21117,0,0,1-10.536,3.98434c-11.95113,0-18.94679-8.23478-18.94679-20.27975V108.42449H542.646v22.311c0,6.01572,2.47824,10.446,7.78782,10.446a9.70678,9.70678,0,0,0,8.32373-4.51743V108.42449h13.36719v44.26122H558.75756Z"/><path class="cls-1" d="M594.872,153.39966c-7.7047,0-13.99022-2.74523-17.79758-9.38687l10.18293-6.90953c1.77208,3.19218,4.16039,5.40342,8.14373,5.40342,1.85922,0,3.45428-.43914,3.45428-2.03909,0-1.67826-1.23913-2.21124-5.5794-3.8895l-2.30127-.8861c-7.7017-3.01122-11.68514-7.96769-11.68514-14.25722,0-8.14084,6.72867-13.71641,15.22553-13.71641,5.66651,0,10.62588,2.1184,13.99022,6.98785l-7.61467,7.52854c-1.68217-2.39211-3.63033-3.98435-6.37555-3.98435-1.7683,0-3.18437.62011-3.18437,2.0392,0,1.76528,1.41607,2.29827,5.84257,3.98334l1.85912.70613c8.41074,3.18437,11.8612,7.78773,11.8612,14.34324C610.89361,148.34925,603.90186,153.39966,594.872,153.39966Z"/><path class="cls-1" d="M620.10041,139.05632V120.10963h-5.75554l-2.92218-11.68514h8.67772V101.782l13.36731-6.64154v13.28408H647.454l-2.92129,11.68514h-11.065V135.245c0,3.72426,1.50511,5.22256,5.13643,5.22256h7.25765v12.21812H633.64468C625.32388,152.68571,620.10041,147.46315,620.10041,139.05632Z"/><path class="cls-1" d="M674.80465,120.81567A12.87633,12.87633,0,0,0,666.747,123.74v28.94575H653.37973V108.42449H666.747v3.89732a12.0768,12.0768,0,0,1,10.093-4.60345,15.98975,15.98975,0,0,1,4.78331.70613v13.89638A15.09906,15.09906,0,0,0,674.80465,120.81567Z"/><path class="cls-1" d="M694.01453,89.12468a7.93224,7.93224,0,0,1,7.96768,7.96779,7.61712,7.61712,0,0,1-1.76917,5.0425h-12.3941a7.599,7.599,0,0,1-1.7722-5.0425A7.9317,7.9317,0,0,1,694.01453,89.12468Zm-6.72867,63.561V108.42449H700.7431v44.26122Z"/><path class="cls-1" d="M707.82088,130.55555c0-13.01128,9.2069-22.83719,22.8411-22.83719,11.245,0,21.338,7.34767,21.338,21.33108a29.98126,29.98126,0,0,1-.26611,3.89732H720.659c.70912,5.9296,5.66559,8.23478,9.64993,8.23478a10.144,10.144,0,0,0,9.4729-5.57658l10.622,7.16871a23.277,23.277,0,0,1-20.00494,10.626A22.551,22.551,0,0,1,707.82088,130.55555Zm30.98885-5.40342-.09-.52617c-.886-4.33636-4.69339-6.19559-8.85379-6.19559-3.18828,0-7.79173,1.41227-9.03084,6.72176Z"/></svg>